%TF.GenerationSoftware,KiCad,Pcbnew,10.0.3*%
%TF.CreationDate,2026-06-09T11:13:46+05:45*%
%TF.ProjectId,digiclo,64696769-636c-46f2-9e6b-696361645f70,rev?*%
%TF.SameCoordinates,Original*%
%TF.FileFunction,Legend,Top*%
%TF.FilePolarity,Positive*%
%FSLAX46Y46*%
G04 Gerber Fmt 4.6, Leading zero omitted, Abs format (unit mm)*
G04 Created by KiCad (PCBNEW 10.0.3) date 2026-06-09 11:13:46*
%MOMM*%
%LPD*%
G01*
G04 APERTURE LIST*
%ADD10C,0.150000*%
%ADD11C,0.120000*%
%ADD12C,0.127000*%
%ADD13C,0.200000*%
G04 APERTURE END LIST*
D10*
X110293095Y-97064819D02*
X110293095Y-97874342D01*
X110293095Y-97874342D02*
X110340714Y-97969580D01*
X110340714Y-97969580D02*
X110388333Y-98017200D01*
X110388333Y-98017200D02*
X110483571Y-98064819D01*
X110483571Y-98064819D02*
X110674047Y-98064819D01*
X110674047Y-98064819D02*
X110769285Y-98017200D01*
X110769285Y-98017200D02*
X110816904Y-97969580D01*
X110816904Y-97969580D02*
X110864523Y-97874342D01*
X110864523Y-97874342D02*
X110864523Y-97064819D01*
X111864523Y-98064819D02*
X111293095Y-98064819D01*
X111578809Y-98064819D02*
X111578809Y-97064819D01*
X111578809Y-97064819D02*
X111483571Y-97207676D01*
X111483571Y-97207676D02*
X111388333Y-97302914D01*
X111388333Y-97302914D02*
X111293095Y-97350533D01*
X80954819Y-61261904D02*
X81764342Y-61261904D01*
X81764342Y-61261904D02*
X81859580Y-61214285D01*
X81859580Y-61214285D02*
X81907200Y-61166666D01*
X81907200Y-61166666D02*
X81954819Y-61071428D01*
X81954819Y-61071428D02*
X81954819Y-60880952D01*
X81954819Y-60880952D02*
X81907200Y-60785714D01*
X81907200Y-60785714D02*
X81859580Y-60738095D01*
X81859580Y-60738095D02*
X81764342Y-60690476D01*
X81764342Y-60690476D02*
X80954819Y-60690476D01*
X81050057Y-60261904D02*
X81002438Y-60214285D01*
X81002438Y-60214285D02*
X80954819Y-60119047D01*
X80954819Y-60119047D02*
X80954819Y-59880952D01*
X80954819Y-59880952D02*
X81002438Y-59785714D01*
X81002438Y-59785714D02*
X81050057Y-59738095D01*
X81050057Y-59738095D02*
X81145295Y-59690476D01*
X81145295Y-59690476D02*
X81240533Y-59690476D01*
X81240533Y-59690476D02*
X81383390Y-59738095D01*
X81383390Y-59738095D02*
X81954819Y-60309523D01*
X81954819Y-60309523D02*
X81954819Y-59690476D01*
X86066666Y-115994819D02*
X86066666Y-116709104D01*
X86066666Y-116709104D02*
X86019047Y-116851961D01*
X86019047Y-116851961D02*
X85923809Y-116947200D01*
X85923809Y-116947200D02*
X85780952Y-116994819D01*
X85780952Y-116994819D02*
X85685714Y-116994819D01*
X87066666Y-116994819D02*
X86495238Y-116994819D01*
X86780952Y-116994819D02*
X86780952Y-115994819D01*
X86780952Y-115994819D02*
X86685714Y-116137676D01*
X86685714Y-116137676D02*
X86590476Y-116232914D01*
X86590476Y-116232914D02*
X86495238Y-116280533D01*
X88666666Y-109074819D02*
X88666666Y-109789104D01*
X88666666Y-109789104D02*
X88619047Y-109931961D01*
X88619047Y-109931961D02*
X88523809Y-110027200D01*
X88523809Y-110027200D02*
X88380952Y-110074819D01*
X88380952Y-110074819D02*
X88285714Y-110074819D01*
X89571428Y-109408152D02*
X89571428Y-110074819D01*
X89333333Y-109027200D02*
X89095238Y-109741485D01*
X89095238Y-109741485D02*
X89714285Y-109741485D01*
X41066666Y-119004819D02*
X40733333Y-118528628D01*
X40495238Y-119004819D02*
X40495238Y-118004819D01*
X40495238Y-118004819D02*
X40876190Y-118004819D01*
X40876190Y-118004819D02*
X40971428Y-118052438D01*
X40971428Y-118052438D02*
X41019047Y-118100057D01*
X41019047Y-118100057D02*
X41066666Y-118195295D01*
X41066666Y-118195295D02*
X41066666Y-118338152D01*
X41066666Y-118338152D02*
X41019047Y-118433390D01*
X41019047Y-118433390D02*
X40971428Y-118481009D01*
X40971428Y-118481009D02*
X40876190Y-118528628D01*
X40876190Y-118528628D02*
X40495238Y-118528628D01*
X41495238Y-118481009D02*
X41828571Y-118481009D01*
X41971428Y-119004819D02*
X41495238Y-119004819D01*
X41495238Y-119004819D02*
X41495238Y-118004819D01*
X41495238Y-118004819D02*
X41971428Y-118004819D01*
X42733333Y-118481009D02*
X42400000Y-118481009D01*
X42400000Y-119004819D02*
X42400000Y-118004819D01*
X42400000Y-118004819D02*
X42876190Y-118004819D01*
X43400000Y-118004819D02*
X43400000Y-118242914D01*
X43161905Y-118147676D02*
X43400000Y-118242914D01*
X43400000Y-118242914D02*
X43638095Y-118147676D01*
X43257143Y-118433390D02*
X43400000Y-118242914D01*
X43400000Y-118242914D02*
X43542857Y-118433390D01*
X44161905Y-118004819D02*
X44161905Y-118242914D01*
X43923810Y-118147676D02*
X44161905Y-118242914D01*
X44161905Y-118242914D02*
X44400000Y-118147676D01*
X44019048Y-118433390D02*
X44161905Y-118242914D01*
X44161905Y-118242914D02*
X44304762Y-118433390D01*
X45566666Y-58904819D02*
X45233333Y-58428628D01*
X44995238Y-58904819D02*
X44995238Y-57904819D01*
X44995238Y-57904819D02*
X45376190Y-57904819D01*
X45376190Y-57904819D02*
X45471428Y-57952438D01*
X45471428Y-57952438D02*
X45519047Y-58000057D01*
X45519047Y-58000057D02*
X45566666Y-58095295D01*
X45566666Y-58095295D02*
X45566666Y-58238152D01*
X45566666Y-58238152D02*
X45519047Y-58333390D01*
X45519047Y-58333390D02*
X45471428Y-58381009D01*
X45471428Y-58381009D02*
X45376190Y-58428628D01*
X45376190Y-58428628D02*
X44995238Y-58428628D01*
X45995238Y-58381009D02*
X46328571Y-58381009D01*
X46471428Y-58904819D02*
X45995238Y-58904819D01*
X45995238Y-58904819D02*
X45995238Y-57904819D01*
X45995238Y-57904819D02*
X46471428Y-57904819D01*
X47233333Y-58381009D02*
X46900000Y-58381009D01*
X46900000Y-58904819D02*
X46900000Y-57904819D01*
X46900000Y-57904819D02*
X47376190Y-57904819D01*
X47900000Y-57904819D02*
X47900000Y-58142914D01*
X47661905Y-58047676D02*
X47900000Y-58142914D01*
X47900000Y-58142914D02*
X48138095Y-58047676D01*
X47757143Y-58333390D02*
X47900000Y-58142914D01*
X47900000Y-58142914D02*
X48042857Y-58333390D01*
X48661905Y-57904819D02*
X48661905Y-58142914D01*
X48423810Y-58047676D02*
X48661905Y-58142914D01*
X48661905Y-58142914D02*
X48900000Y-58047676D01*
X48519048Y-58333390D02*
X48661905Y-58142914D01*
X48661905Y-58142914D02*
X48804762Y-58333390D01*
X40833333Y-67454819D02*
X40500000Y-66978628D01*
X40261905Y-67454819D02*
X40261905Y-66454819D01*
X40261905Y-66454819D02*
X40642857Y-66454819D01*
X40642857Y-66454819D02*
X40738095Y-66502438D01*
X40738095Y-66502438D02*
X40785714Y-66550057D01*
X40785714Y-66550057D02*
X40833333Y-66645295D01*
X40833333Y-66645295D02*
X40833333Y-66788152D01*
X40833333Y-66788152D02*
X40785714Y-66883390D01*
X40785714Y-66883390D02*
X40738095Y-66931009D01*
X40738095Y-66931009D02*
X40642857Y-66978628D01*
X40642857Y-66978628D02*
X40261905Y-66978628D01*
X41785714Y-67454819D02*
X41214286Y-67454819D01*
X41500000Y-67454819D02*
X41500000Y-66454819D01*
X41500000Y-66454819D02*
X41404762Y-66597676D01*
X41404762Y-66597676D02*
X41309524Y-66692914D01*
X41309524Y-66692914D02*
X41214286Y-66740533D01*
X88666666Y-97249819D02*
X88666666Y-97964104D01*
X88666666Y-97964104D02*
X88619047Y-98106961D01*
X88619047Y-98106961D02*
X88523809Y-98202200D01*
X88523809Y-98202200D02*
X88380952Y-98249819D01*
X88380952Y-98249819D02*
X88285714Y-98249819D01*
X89047619Y-97249819D02*
X89666666Y-97249819D01*
X89666666Y-97249819D02*
X89333333Y-97630771D01*
X89333333Y-97630771D02*
X89476190Y-97630771D01*
X89476190Y-97630771D02*
X89571428Y-97678390D01*
X89571428Y-97678390D02*
X89619047Y-97726009D01*
X89619047Y-97726009D02*
X89666666Y-97821247D01*
X89666666Y-97821247D02*
X89666666Y-98059342D01*
X89666666Y-98059342D02*
X89619047Y-98154580D01*
X89619047Y-98154580D02*
X89571428Y-98202200D01*
X89571428Y-98202200D02*
X89476190Y-98249819D01*
X89476190Y-98249819D02*
X89190476Y-98249819D01*
X89190476Y-98249819D02*
X89095238Y-98202200D01*
X89095238Y-98202200D02*
X89047619Y-98154580D01*
X106866666Y-58554819D02*
X106533333Y-58078628D01*
X106295238Y-58554819D02*
X106295238Y-57554819D01*
X106295238Y-57554819D02*
X106676190Y-57554819D01*
X106676190Y-57554819D02*
X106771428Y-57602438D01*
X106771428Y-57602438D02*
X106819047Y-57650057D01*
X106819047Y-57650057D02*
X106866666Y-57745295D01*
X106866666Y-57745295D02*
X106866666Y-57888152D01*
X106866666Y-57888152D02*
X106819047Y-57983390D01*
X106819047Y-57983390D02*
X106771428Y-58031009D01*
X106771428Y-58031009D02*
X106676190Y-58078628D01*
X106676190Y-58078628D02*
X106295238Y-58078628D01*
X107295238Y-58031009D02*
X107628571Y-58031009D01*
X107771428Y-58554819D02*
X107295238Y-58554819D01*
X107295238Y-58554819D02*
X107295238Y-57554819D01*
X107295238Y-57554819D02*
X107771428Y-57554819D01*
X108533333Y-58031009D02*
X108200000Y-58031009D01*
X108200000Y-58554819D02*
X108200000Y-57554819D01*
X108200000Y-57554819D02*
X108676190Y-57554819D01*
X109200000Y-57554819D02*
X109200000Y-57792914D01*
X108961905Y-57697676D02*
X109200000Y-57792914D01*
X109200000Y-57792914D02*
X109438095Y-57697676D01*
X109057143Y-57983390D02*
X109200000Y-57792914D01*
X109200000Y-57792914D02*
X109342857Y-57983390D01*
X109961905Y-57554819D02*
X109961905Y-57792914D01*
X109723810Y-57697676D02*
X109961905Y-57792914D01*
X109961905Y-57792914D02*
X110200000Y-57697676D01*
X109819048Y-57983390D02*
X109961905Y-57792914D01*
X109961905Y-57792914D02*
X110104762Y-57983390D01*
X110666666Y-119204819D02*
X110333333Y-118728628D01*
X110095238Y-119204819D02*
X110095238Y-118204819D01*
X110095238Y-118204819D02*
X110476190Y-118204819D01*
X110476190Y-118204819D02*
X110571428Y-118252438D01*
X110571428Y-118252438D02*
X110619047Y-118300057D01*
X110619047Y-118300057D02*
X110666666Y-118395295D01*
X110666666Y-118395295D02*
X110666666Y-118538152D01*
X110666666Y-118538152D02*
X110619047Y-118633390D01*
X110619047Y-118633390D02*
X110571428Y-118681009D01*
X110571428Y-118681009D02*
X110476190Y-118728628D01*
X110476190Y-118728628D02*
X110095238Y-118728628D01*
X111095238Y-118681009D02*
X111428571Y-118681009D01*
X111571428Y-119204819D02*
X111095238Y-119204819D01*
X111095238Y-119204819D02*
X111095238Y-118204819D01*
X111095238Y-118204819D02*
X111571428Y-118204819D01*
X112333333Y-118681009D02*
X112000000Y-118681009D01*
X112000000Y-119204819D02*
X112000000Y-118204819D01*
X112000000Y-118204819D02*
X112476190Y-118204819D01*
X113000000Y-118204819D02*
X113000000Y-118442914D01*
X112761905Y-118347676D02*
X113000000Y-118442914D01*
X113000000Y-118442914D02*
X113238095Y-118347676D01*
X112857143Y-118633390D02*
X113000000Y-118442914D01*
X113000000Y-118442914D02*
X113142857Y-118633390D01*
X113761905Y-118204819D02*
X113761905Y-118442914D01*
X113523810Y-118347676D02*
X113761905Y-118442914D01*
X113761905Y-118442914D02*
X114000000Y-118347676D01*
X113619048Y-118633390D02*
X113761905Y-118442914D01*
X113761905Y-118442914D02*
X113904762Y-118633390D01*
X44833333Y-73179580D02*
X44785714Y-73227200D01*
X44785714Y-73227200D02*
X44642857Y-73274819D01*
X44642857Y-73274819D02*
X44547619Y-73274819D01*
X44547619Y-73274819D02*
X44404762Y-73227200D01*
X44404762Y-73227200D02*
X44309524Y-73131961D01*
X44309524Y-73131961D02*
X44261905Y-73036723D01*
X44261905Y-73036723D02*
X44214286Y-72846247D01*
X44214286Y-72846247D02*
X44214286Y-72703390D01*
X44214286Y-72703390D02*
X44261905Y-72512914D01*
X44261905Y-72512914D02*
X44309524Y-72417676D01*
X44309524Y-72417676D02*
X44404762Y-72322438D01*
X44404762Y-72322438D02*
X44547619Y-72274819D01*
X44547619Y-72274819D02*
X44642857Y-72274819D01*
X44642857Y-72274819D02*
X44785714Y-72322438D01*
X44785714Y-72322438D02*
X44833333Y-72370057D01*
X45785714Y-73274819D02*
X45214286Y-73274819D01*
X45500000Y-73274819D02*
X45500000Y-72274819D01*
X45500000Y-72274819D02*
X45404762Y-72417676D01*
X45404762Y-72417676D02*
X45309524Y-72512914D01*
X45309524Y-72512914D02*
X45214286Y-72560533D01*
%TO.C,U1*%
D11*
X87555000Y-89830000D02*
X87555000Y-64400000D01*
X87555000Y-89830000D02*
X90095000Y-89830000D01*
X90095000Y-89830000D02*
X90095000Y-96730000D01*
X90095000Y-96730000D02*
X113415000Y-96730000D01*
X111295000Y-62270000D02*
X89685000Y-62270000D01*
X113415000Y-96730000D02*
X113415000Y-64400000D01*
X87555000Y-64400000D02*
G75*
G02*
X89685000Y-62270000I2130002J-2D01*
G01*
X111285000Y-62270000D02*
G75*
G02*
X113415000Y-64400000I0J-2130000D01*
G01*
D10*
X86515000Y-69975000D02*
X86515000Y-71245000D01*
X87150000Y-70610000D01*
X86515000Y-69975000D01*
G36*
X87150000Y-70610000D02*
G01*
X86515000Y-71245000D01*
X86515000Y-69975000D01*
X87150000Y-70610000D01*
G37*
%TO.C,U2*%
D12*
X48855000Y-64600000D02*
X48855000Y-115400000D01*
X51395000Y-117940000D02*
X80605000Y-117940000D01*
X80605000Y-62060000D02*
X51395000Y-62060000D01*
X83145000Y-115400000D02*
X83145000Y-64600000D01*
X48855000Y-64600000D02*
G75*
G02*
X51395000Y-62060000I2540001J-1D01*
G01*
X51395000Y-117940000D02*
G75*
G02*
X48855000Y-115400000I0J2540000D01*
G01*
X80605000Y-62060000D02*
G75*
G02*
X83145000Y-64600000I-1J-2540001D01*
G01*
X83145000Y-115400000D02*
G75*
G02*
X80605000Y-117940000I-2540000J0D01*
G01*
D13*
X77530000Y-61310000D02*
G75*
G02*
X77330000Y-61310000I-100000J0D01*
G01*
X77330000Y-61310000D02*
G75*
G02*
X77530000Y-61310000I100000J0D01*
G01*
%TO.C,J1*%
D11*
X87510000Y-119650000D02*
X87510000Y-121760000D01*
X85290000Y-121760000D02*
X87510000Y-121760000D01*
X85290000Y-119650000D02*
X87510000Y-119650000D01*
X85290000Y-119650000D02*
X85290000Y-121760000D01*
X85290000Y-118650000D02*
X85290000Y-117540000D01*
X85290000Y-117540000D02*
X86400000Y-117540000D01*
%TO.C,J4*%
X87620000Y-110620000D02*
X89000000Y-110620000D01*
X87620000Y-112000000D02*
X87620000Y-110620000D01*
X87620000Y-113270000D02*
X87620000Y-115920000D01*
X87620000Y-113270000D02*
X90380000Y-113270000D01*
X87620000Y-115920000D02*
X90380000Y-115920000D01*
X90380000Y-113270000D02*
X90380000Y-115920000D01*
%TO.C,R1*%
X43772936Y-66765000D02*
X44227064Y-66765000D01*
X43772936Y-68235000D02*
X44227064Y-68235000D01*
%TO.C,J3*%
X87620000Y-98795000D02*
X89000000Y-98795000D01*
X87620000Y-100175000D02*
X87620000Y-98795000D01*
X87620000Y-101445000D02*
X87620000Y-104095000D01*
X87620000Y-101445000D02*
X90380000Y-101445000D01*
X87620000Y-104095000D02*
X90380000Y-104095000D01*
X90380000Y-101445000D02*
X90380000Y-104095000D01*
%TO.C,C1*%
X44738748Y-73765000D02*
X45261252Y-73765000D01*
X44738748Y-75235000D02*
X45261252Y-75235000D01*
%TD*%
M02*
