%TF.GenerationSoftware,KiCad,Pcbnew,10.0.3*%
%TF.CreationDate,2026-06-09T11:13:46+05:45*%
%TF.ProjectId,digiclo,64696769-636c-46f2-9e6b-696361645f70,rev?*%
%TF.SameCoordinates,Original*%
%TF.FileFunction,Soldermask,Top*%
%TF.FilePolarity,Negative*%
%FSLAX46Y46*%
G04 Gerber Fmt 4.6, Leading zero omitted, Abs format (unit mm)*
G04 Created by KiCad (PCBNEW 10.0.3) date 2026-06-09 11:13:46*
%MOMM*%
%LPD*%
G01*
G04 APERTURE LIST*
G04 Aperture macros list*
%AMRoundRect*
0 Rectangle with rounded corners*
0 $1 Rounding radius*
0 $2 $3 $4 $5 $6 $7 $8 $9 X,Y pos of 4 corners*
0 Add a 4 corners polygon primitive as box body*
4,1,4,$2,$3,$4,$5,$6,$7,$8,$9,$2,$3,0*
0 Add four circle primitives for the rounded corners*
1,1,$1+$1,$2,$3*
1,1,$1+$1,$4,$5*
1,1,$1+$1,$6,$7*
1,1,$1+$1,$8,$9*
0 Add four rect primitives between the rounded corners*
20,1,$1+$1,$2,$3,$4,$5,0*
20,1,$1+$1,$4,$5,$6,$7,0*
20,1,$1+$1,$6,$7,$8,$9,0*
20,1,$1+$1,$8,$9,$2,$3,0*%
G04 Aperture macros list end*
%ADD10R,2.000000X2.000000*%
%ADD11O,2.000000X1.600000*%
%ADD12C,2.200000*%
%ADD13RoundRect,0.102000X-0.889000X0.889000X-0.889000X-0.889000X0.889000X-0.889000X0.889000X0.889000X0*%
%ADD14C,1.982000*%
%ADD15C,1.350000*%
%ADD16R,1.350000X1.350000*%
%ADD17R,1.700000X1.700000*%
%ADD18C,1.700000*%
%ADD19C,3.800000*%
%ADD20RoundRect,0.250000X-0.350000X-0.450000X0.350000X-0.450000X0.350000X0.450000X-0.350000X0.450000X0*%
%ADD21RoundRect,0.250000X-0.337500X-0.475000X0.337500X-0.475000X0.337500X0.475000X-0.337500X0.475000X0*%
G04 APERTURE END LIST*
D10*
%TO.C,U1*%
X89055000Y-70610000D03*
D11*
X89055000Y-73150000D03*
X89055000Y-75690000D03*
X89055000Y-78230000D03*
X89055000Y-80770000D03*
X89055000Y-83310000D03*
X89055000Y-85850000D03*
X89055000Y-88390000D03*
X111915000Y-88390000D03*
X111915000Y-85850000D03*
X111915000Y-83310000D03*
X111915000Y-80770000D03*
X111915000Y-78230000D03*
X111915000Y-75690000D03*
X111915000Y-73150000D03*
X111915000Y-70610000D03*
%TD*%
D12*
%TO.C,U2*%
X80605000Y-64600000D03*
X51395000Y-64600000D03*
X80605000Y-115400000D03*
X51395000Y-115400000D03*
D13*
X77430000Y-64600000D03*
D14*
X74890000Y-64600000D03*
X72350000Y-64600000D03*
X69810000Y-64600000D03*
X67270000Y-64600000D03*
X64730000Y-64600000D03*
X62190000Y-64600000D03*
X59650000Y-64600000D03*
X57110000Y-64600000D03*
X54570000Y-64600000D03*
%TD*%
D15*
%TO.C,J1*%
X86400000Y-120650000D03*
D16*
X86400000Y-118650000D03*
%TD*%
D17*
%TO.C,J4*%
X89000000Y-112000000D03*
D18*
X89000000Y-114540000D03*
%TD*%
D19*
%TO.C,REF\u002A\u002A*%
X42400000Y-121400000D03*
%TD*%
%TO.C,REF\u002A\u002A*%
X42500000Y-59500000D03*
%TD*%
D20*
%TO.C,R1*%
X43000000Y-67500000D03*
X45000000Y-67500000D03*
%TD*%
D17*
%TO.C,J3*%
X89000000Y-100175000D03*
D18*
X89000000Y-102715000D03*
%TD*%
D19*
%TO.C,REF\u002A\u002A*%
X112000000Y-59500000D03*
%TD*%
%TO.C,REF\u002A\u002A*%
X112000000Y-121600000D03*
%TD*%
D21*
%TO.C,C1*%
X43962500Y-74500000D03*
X46037500Y-74500000D03*
%TD*%
M02*
