%TF.GenerationSoftware,KiCad,Pcbnew,10.0.3*%
%TF.CreationDate,2026-06-09T11:13:46+05:45*%
%TF.ProjectId,digiclo,64696769-636c-46f2-9e6b-696361645f70,rev?*%
%TF.SameCoordinates,Original*%
%TF.FileFunction,Copper,L1,Top*%
%TF.FilePolarity,Positive*%
%FSLAX46Y46*%
G04 Gerber Fmt 4.6, Leading zero omitted, Abs format (unit mm)*
G04 Created by KiCad (PCBNEW 10.0.3) date 2026-06-09 11:13:46*
%MOMM*%
%LPD*%
G01*
G04 APERTURE LIST*
G04 Aperture macros list*
%AMRoundRect*
0 Rectangle with rounded corners*
0 $1 Rounding radius*
0 $2 $3 $4 $5 $6 $7 $8 $9 X,Y pos of 4 corners*
0 Add a 4 corners polygon primitive as box body*
4,1,4,$2,$3,$4,$5,$6,$7,$8,$9,$2,$3,0*
0 Add four circle primitives for the rounded corners*
1,1,$1+$1,$2,$3*
1,1,$1+$1,$4,$5*
1,1,$1+$1,$6,$7*
1,1,$1+$1,$8,$9*
0 Add four rect primitives between the rounded corners*
20,1,$1+$1,$2,$3,$4,$5,0*
20,1,$1+$1,$4,$5,$6,$7,0*
20,1,$1+$1,$6,$7,$8,$9,0*
20,1,$1+$1,$8,$9,$2,$3,0*%
G04 Aperture macros list end*
%TA.AperFunction,ComponentPad*%
%ADD10R,2.000000X2.000000*%
%TD*%
%TA.AperFunction,ComponentPad*%
%ADD11O,2.000000X1.600000*%
%TD*%
%TA.AperFunction,ComponentPad*%
%ADD12R,1.778000X1.778000*%
%TD*%
%TA.AperFunction,ComponentPad*%
%ADD13C,1.778000*%
%TD*%
%TA.AperFunction,ComponentPad*%
%ADD14C,1.350000*%
%TD*%
%TA.AperFunction,ComponentPad*%
%ADD15R,1.350000X1.350000*%
%TD*%
%TA.AperFunction,ComponentPad*%
%ADD16R,1.700000X1.700000*%
%TD*%
%TA.AperFunction,ComponentPad*%
%ADD17C,1.700000*%
%TD*%
%TA.AperFunction,ComponentPad*%
%ADD18C,3.800000*%
%TD*%
%TA.AperFunction,SMDPad,CuDef*%
%ADD19RoundRect,0.250000X-0.350000X-0.450000X0.350000X-0.450000X0.350000X0.450000X-0.350000X0.450000X0*%
%TD*%
%TA.AperFunction,SMDPad,CuDef*%
%ADD20RoundRect,0.250000X-0.337500X-0.475000X0.337500X-0.475000X0.337500X0.475000X-0.337500X0.475000X0*%
%TD*%
%TA.AperFunction,ViaPad*%
%ADD21C,0.600000*%
%TD*%
%TA.AperFunction,Conductor*%
%ADD22C,0.200000*%
%TD*%
G04 APERTURE END LIST*
D10*
%TO.P,U1,1,~{RST}_1*%
%TO.N,Net-(U1-~{RST})*%
X89055000Y-70610000D03*
D11*
%TO.P,U1,2,A0_2*%
%TO.N,unconnected-(U1-A0-Pad2)*%
X89055000Y-73150000D03*
%TO.P,U1,3,D0_3*%
%TO.N,unconnected-(U1-D0-Pad3)*%
X89055000Y-75690000D03*
%TO.P,U1,4,SCK/D5_4*%
%TO.N,Net-(U1-SCK{slash}D5)*%
X89055000Y-78230000D03*
%TO.P,U1,5,MISO/D6_5*%
%TO.N,unconnected-(U1-MISO{slash}D6-Pad5)*%
X89055000Y-80770000D03*
%TO.P,U1,6,MOSI/D7_6*%
%TO.N,Net-(U1-MOSI{slash}D7)*%
X89055000Y-83310000D03*
%TO.P,U1,7,CS/D8_7*%
%TO.N,Net-(U1-CS{slash}D8)*%
X89055000Y-85850000D03*
%TO.P,U1,8,3V3_8*%
%TO.N,+3V3*%
X89055000Y-88390000D03*
%TO.P,U1,9,5V_9*%
%TO.N,+5V*%
X111915000Y-88390000D03*
%TO.P,U1,10,GND_10*%
%TO.N,GND*%
X111915000Y-85850000D03*
%TO.P,U1,11,D4_11*%
%TO.N,unconnected-(U1-D4-Pad11)*%
X111915000Y-83310000D03*
%TO.P,U1,12,D3_12*%
%TO.N,Net-(U1-D3)*%
X111915000Y-80770000D03*
%TO.P,U1,13,SDA/D2_13*%
%TO.N,unconnected-(U1-SDA{slash}D2-Pad13)*%
X111915000Y-78230000D03*
%TO.P,U1,14,SCL/D1_14*%
%TO.N,unconnected-(U1-SCL{slash}D1-Pad14)*%
X111915000Y-75690000D03*
%TO.P,U1,15,RX_15*%
%TO.N,unconnected-(U1-RX-Pad15)*%
X111915000Y-73150000D03*
%TO.P,U1,16,TX_16*%
%TO.N,unconnected-(U1-TX-Pad16)*%
X111915000Y-70610000D03*
%TD*%
D12*
%TO.P,U2,1,LITE_1*%
%TO.N,Net-(U2-LITE)*%
X77430000Y-64600000D03*
D13*
%TO.P,U2,2,MISO_2*%
%TO.N,unconnected-(U2-MISO-Pad2)*%
X74890000Y-64600000D03*
%TO.P,U2,3,SCK_3*%
%TO.N,Net-(U1-SCK{slash}D5)*%
X72350000Y-64600000D03*
%TO.P,U2,4,MOSI_4*%
%TO.N,Net-(U1-MOSI{slash}D7)*%
X69810000Y-64600000D03*
%TO.P,U2,5,TFT_CS_5*%
%TO.N,Net-(U1-CS{slash}D8)*%
X67270000Y-64600000D03*
%TO.P,U2,6,CARD_CS_6*%
%TO.N,unconnected-(U2-CARD_CS-Pad6)*%
X64730000Y-64600000D03*
%TO.P,U2,7,D/C_7*%
%TO.N,Net-(U1-D3)*%
X62190000Y-64600000D03*
%TO.P,U2,8,RESET_8*%
%TO.N,Net-(U1-~{RST})*%
X59650000Y-64600000D03*
%TO.P,U2,9,VCC_9*%
%TO.N,+3V3*%
X57110000Y-64600000D03*
%TO.P,U2,10,GND_10*%
%TO.N,GND*%
X54570000Y-64600000D03*
%TD*%
D14*
%TO.P,J1,2,Pin_2_2*%
%TO.N,-BATT*%
X86400000Y-120650000D03*
D15*
%TO.P,J1,1,Pin_1_1*%
%TO.N,+BATT*%
X86400000Y-118650000D03*
%TD*%
D16*
%TO.P,J4,1,Pin_1_1*%
%TO.N,-BATT*%
X89000000Y-112000000D03*
D17*
%TO.P,J4,2,Pin_2_2*%
%TO.N,GND*%
X89000000Y-114540000D03*
%TD*%
D18*
%TO.P,REF\u002A\u002A,1*%
%TO.N,N/C*%
X42400000Y-121400000D03*
%TD*%
%TO.P,REF\u002A\u002A,1*%
%TO.N,N/C*%
X42500000Y-59500000D03*
%TD*%
D19*
%TO.P,R1,1*%
%TO.N,+3V3*%
X43000000Y-67500000D03*
%TO.P,R1,2*%
%TO.N,Net-(U2-LITE)*%
X45000000Y-67500000D03*
%TD*%
D16*
%TO.P,J3,1,Pin_1_1*%
%TO.N,+5V*%
X89000000Y-100175000D03*
D17*
%TO.P,J3,2,Pin_2_2*%
%TO.N,+BATT*%
X89000000Y-102715000D03*
%TD*%
D18*
%TO.P,REF\u002A\u002A,1*%
%TO.N,N/C*%
X112000000Y-59500000D03*
%TD*%
%TO.P,REF\u002A\u002A,1*%
%TO.N,N/C*%
X112000000Y-121600000D03*
%TD*%
D20*
%TO.P,C1,1*%
%TO.N,+3V3*%
X43962500Y-74500000D03*
%TO.P,C1,2*%
%TO.N,GND*%
X46037500Y-74500000D03*
%TD*%
D21*
%TO.N,Net-(U1-CS{slash}D8)*%
X69000000Y-67000000D03*
%TO.N,GND*%
X106478235Y-92978235D03*
%TO.N,Net-(U1-D3)*%
X75000000Y-72000000D03*
%TO.N,Net-(U2-LITE)*%
X75500000Y-61500000D03*
%TD*%
%TO.N,+5V*%
D22*
X89000000Y-100175000D02*
X102425000Y-100175000D01*
X102500000Y-100100000D02*
X102500000Y-97805000D01*
X102425000Y-100175000D02*
X102500000Y-100100000D01*
%TO.N,Net-(U1-~{RST})*%
X82550000Y-64395609D02*
X82550000Y-68550000D01*
X86832500Y-72832500D02*
X89055000Y-70610000D01*
X82550000Y-68550000D02*
X86832500Y-72832500D01*
X59650000Y-64600000D02*
X61750000Y-62500000D01*
X61750000Y-62500000D02*
X80654391Y-62500000D01*
X80654391Y-62500000D02*
X82550000Y-64395609D01*
%TO.N,Net-(U1-SCK{slash}D5)*%
X78207999Y-63000000D02*
X78619000Y-63411001D01*
X72350000Y-64600000D02*
X73950000Y-63000000D01*
X78619000Y-63411001D02*
X78619000Y-67794000D01*
X78619000Y-67794000D02*
X89055000Y-78230000D01*
X73950000Y-63000000D02*
X78207999Y-63000000D01*
%TO.N,Net-(U1-CS{slash}D8)*%
X67270000Y-65270000D02*
X69000000Y-67000000D01*
X67270000Y-64600000D02*
X67319000Y-64600000D01*
X67270000Y-64600000D02*
X67270000Y-65270000D01*
%TO.N,+3V3*%
X45900000Y-72562500D02*
X43962500Y-74500000D01*
X49000000Y-61500000D02*
X54010000Y-61500000D01*
X54010000Y-61500000D02*
X57110000Y-64600000D01*
X43000000Y-67500000D02*
X44000000Y-66500000D01*
X45584744Y-66500000D02*
X45900000Y-66815256D01*
X43000000Y-67500000D02*
X49000000Y-61500000D01*
X80900000Y-88390000D02*
X89055000Y-88390000D01*
X44000000Y-66500000D02*
X45584744Y-66500000D01*
X57110000Y-64600000D02*
X80900000Y-88390000D01*
X45900000Y-66815256D02*
X45900000Y-72562500D01*
%TO.N,+5V*%
X102500000Y-97805000D02*
X111915000Y-88390000D01*
%TO.N,GND*%
X106478235Y-91286765D02*
X106478235Y-92978235D01*
X46037500Y-74500000D02*
X46037500Y-73132500D01*
X106765000Y-91000000D02*
X106478235Y-91286765D01*
X80970000Y-91000000D02*
X106765000Y-91000000D01*
X106765000Y-91000000D02*
X111915000Y-85850000D01*
X54570000Y-64600000D02*
X80970000Y-91000000D01*
X46037500Y-73132500D02*
X54570000Y-64600000D01*
%TO.N,Net-(U1-D3)*%
X110685000Y-82000000D02*
X111915000Y-80770000D01*
X75000000Y-72000000D02*
X85000000Y-82000000D01*
X85000000Y-82000000D02*
X110685000Y-82000000D01*
%TO.N,Net-(U2-LITE)*%
X45000000Y-67500000D02*
X44000000Y-68500000D01*
X42415256Y-68500000D02*
X42100000Y-68184744D01*
X42100000Y-68184744D02*
X42100000Y-66815256D01*
X75100000Y-61100000D02*
X75500000Y-61500000D01*
X47815256Y-61100000D02*
X75100000Y-61100000D01*
X44000000Y-68500000D02*
X42415256Y-68500000D01*
X42100000Y-66815256D02*
X47815256Y-61100000D01*
%TD*%
M02*
